<svg xmlns="http://www.w3.org/2000/svg" viewBox="0 0 1200 520">
  <defs>
    <linearGradient id="g1" x1="0" y1="0" x2="1" y2="1">
      <stop offset="0" stop-color="#79a6ff" stop-opacity="0.35"/>
      <stop offset="1" stop-color="#64f2c4" stop-opacity="0.18"/>
    </linearGradient>
    <linearGradient id="g2" x1="0" y1="0" x2="1" y2="0">
      <stop offset="0" stop-color="#79a6ff"/>
      <stop offset="1" stop-color="#64f2c4"/>
    </linearGradient>
    <filter id="shadow" x="-20%" y="-20%" width="140%" height="140%">
      <feDropShadow dx="0" dy="18" stdDeviation="18" flood-color="#000" flood-opacity="0.25"/>
    </filter>
  </defs>

  <rect x="0" y="0" width="1200" height="520" rx="22" fill="rgba(255,255,255,0.03)" stroke="rgba(255,255,255,0.10)"/>

  <g filter="url(#shadow)">
    <rect x="60" y="80" width="520" height="340" rx="18" fill="rgba(255,255,255,0.04)" stroke="rgba(255,255,255,0.10)"/>
    <rect x="620" y="80" width="520" height="340" rx="18" fill="rgba(255,255,255,0.04)" stroke="rgba(255,255,255,0.10)"/>
  </g>

  <text x="90" y="125" fill="rgba(232,238,252,0.92)" font-family="ui-sans-serif,system-ui" font-size="22" font-weight="700">Today</text>
  <text x="650" y="125" fill="rgba(232,238,252,0.92)" font-family="ui-sans-serif,system-ui" font-size="22" font-weight="700">Tomorrow</text>

  <!-- Left: manual follow-up -->
  <g>
    <rect x="95" y="160" width="210" height="130" rx="14" fill="rgba(255,255,255,0.05)" stroke="rgba(255,255,255,0.10)"/>
    <text x="115" y="192" fill="rgba(232,238,252,0.86)" font-family="ui-monospace,Menlo" font-size="14">Manual follow-up</text>
    <g fill="rgba(232,238,252,0.55)">
      <rect x="115" y="210" width="170" height="10" rx="5"/>
      <rect x="115" y="232" width="150" height="10" rx="5"/>
      <rect x="115" y="254" width="165" height="10" rx="5"/>
    </g>

    <rect x="330" y="160" width="210" height="130" rx="14" fill="rgba(255,255,255,0.05)" stroke="rgba(255,255,255,0.10)"/>
    <text x="350" y="192" fill="rgba(232,238,252,0.86)" font-family="ui-monospace,Menlo" font-size="14">Generic messages</text>
    <g fill="rgba(232,238,252,0.55)">
      <rect x="350" y="210" width="170" height="10" rx="5"/>
      <rect x="350" y="232" width="120" height="10" rx="5"/>
      <rect x="350" y="254" width="160" height="10" rx="5"/>
    </g>

    <rect x="95" y="305" width="445" height="95" rx="14" fill="rgba(255,255,255,0.05)" stroke="rgba(255,255,255,0.10)"/>
    <text x="115" y="337" fill="rgba(232,238,252,0.86)" font-family="ui-monospace,Menlo" font-size="14">Calendar</text>
    <g fill="rgba(232,238,252,0.25)">
      <rect x="115" y="352" width="90" height="12" rx="6"/>
      <rect x="215" y="352" width="90" height="12" rx="6"/>
      <rect x="315" y="352" width="90" height="12" rx="6"/>
      <rect x="115" y="372" width="90" height="12" rx="6"/>
      <rect x="215" y="372" width="90" height="12" rx="6"/>
      <rect x="315" y="372" width="90" height="12" rx="6"/>
    </g>
    <text x="410" y="386" fill="rgba(255,107,107,0.95)" font-family="ui-sans-serif,system-ui" font-size="12" font-weight="700">OPEN SLOTS</text>
  </g>

  <!-- Arrow -->
  <g>
    <path d="M580 250 C600 250, 600 250, 620 250" stroke="url(#g2)" stroke-width="10" fill="none" stroke-linecap="round"/>
    <path d="M618 236 L650 250 L618 264" fill="url(#g2)"/>
  </g>

  <!-- Right: AI guided -->
  <g>
    <rect x="655" y="160" width="485" height="165" rx="14" fill="url(#g1)" stroke="rgba(121,166,255,0.35)"/>
    <text x="680" y="193" fill="rgba(232,238,252,0.92)" font-family="ui-sans-serif,system-ui" font-size="16" font-weight="800">Next Best Actions</text>
    <text x="680" y="220" fill="rgba(232,238,252,0.78)" font-family="ui-monospace,Menlo" font-size="13">1) Deferred brake estimate follow-up</text>
    <text x="680" y="244" fill="rgba(232,238,252,0.78)" font-family="ui-monospace,Menlo" font-size="13">2) Lapsed customer reactivation</text>
    <text x="680" y="268" fill="rgba(232,238,252,0.78)" font-family="ui-monospace,Menlo" font-size="13">3) Seasonal A/C inspection prompt</text>

    <rect x="980" y="280" width="140" height="34" rx="999" fill="rgba(255,255,255,0.16)" stroke="rgba(255,255,255,0.25)"/>
    <text x="1018" y="303" fill="rgba(232,238,252,0.95)" font-family="ui-sans-serif,system-ui" font-size="13" font-weight="800">Approve</text>

    <rect x="655" y="340" width="485" height="60" rx="14" fill="rgba(255,255,255,0.05)" stroke="rgba(255,255,255,0.10)"/>
    <text x="680" y="374" fill="rgba(232,238,252,0.86)" font-family="ui-monospace,Menlo" font-size="14">Calendar fills with booked jobs</text>
    <g fill="rgba(100,242,196,0.55)">
      <rect x="930" y="358" width="70" height="12" rx="6"/>
      <rect x="1010" y="358" width="70" height="12" rx="6"/>
      <rect x="930" y="378" width="70" height="12" rx="6"/>
      <rect x="1010" y="378" width="70" height="12" rx="6"/>
    </g>
  </g>

  <!-- Guardrails -->
  <g>
    <text x="60" y="465" fill="rgba(232,238,252,0.72)" font-family="ui-sans-serif,system-ui" font-size="14" font-weight="700">Guardrails:</text>
    <g>
      <rect x="150" y="442" width="150" height="34" rx="999" fill="rgba(255,255,255,0.05)" stroke="rgba(255,255,255,0.12)"/>
      <text x="170" y="465" fill="rgba(232,238,252,0.82)" font-family="ui-monospace,Menlo" font-size="12">Approval mode</text>

      <rect x="310" y="442" width="160" height="34" rx="999" fill="rgba(255,255,255,0.05)" stroke="rgba(255,255,255,0.12)"/>
      <text x="332" y="465" fill="rgba(232,238,252,0.82)" font-family="ui-monospace,Menlo" font-size="12">Frequency caps</text>

      <rect x="480" y="442" width="135" height="34" rx="999" fill="rgba(255,255,255,0.05)" stroke="rgba(255,255,255,0.12)"/>
      <text x="505" y="465" fill="rgba(232,238,252,0.82)" font-family="ui-monospace,Menlo" font-size="12">Quiet hours</text>

      <rect x="625" y="442" width="215" height="34" rx="999" fill="rgba(255,255,255,0.05)" stroke="rgba(255,255,255,0.12)"/>
      <text x="646" y="465" fill="rgba(232,238,252,0.82)" font-family="ui-monospace,Menlo" font-size="12">Consent &amp; opt-out logs</text>

      <rect x="850" y="442" width="120" height="34" rx="999" fill="rgba(255,255,255,0.05)" stroke="rgba(255,255,255,0.12)"/>
      <text x="875" y="465" fill="rgba(232,238,252,0.82)" font-family="ui-monospace,Menlo" font-size="12">Kill switch</text>
    </g>
  </g>
</svg>
